<svg width="38" height="44" viewBox="0 0 38 44" fill="none" xmlns="http://www.w3.org/2000/svg">
<path d="M36.9765 30.3311C36.8144 30.1357 36.6552 29.9404 36.499 29.752C34.3505 27.1533 33.0507 25.585 33.0507 18.2285C33.0507 14.4199 32.1396 11.2949 30.3437 8.95117C29.0195 7.21973 27.2294 5.90625 24.8701 4.93555C24.8397 4.91866 24.8126 4.8965 24.79 4.87012C23.9414 2.02832 21.6191 0.125 18.9999 0.125C16.3808 0.125 14.0595 2.02832 13.2109 4.86719C13.1882 4.8926 13.1615 4.91406 13.1318 4.93066C7.62592 7.19727 4.95014 11.5459 4.95014 18.2256C4.95014 25.585 3.65229 27.1533 1.5019 29.749C1.34565 29.9375 1.18647 30.1289 1.02436 30.3281C0.60561 30.8331 0.340298 31.4475 0.259821 32.0986C0.179345 32.7497 0.287073 33.4102 0.570257 34.002C1.1728 35.2715 2.45698 36.0596 3.9228 36.0596H34.0878C35.5468 36.0596 36.8222 35.2725 37.4267 34.0088C37.7111 33.4169 37.8199 32.7558 37.7401 32.104C37.6603 31.4522 37.3953 30.8369 36.9765 30.3311ZM18.9999 43.875C20.4111 43.8739 21.7957 43.4908 23.0067 42.7665C24.2178 42.0421 25.2103 41.0035 25.8789 39.7607C25.9103 39.7012 25.9259 39.6345 25.924 39.5672C25.9221 39.4998 25.9028 39.4341 25.868 39.3764C25.8333 39.3187 25.7841 39.271 25.7254 39.2379C25.6668 39.2048 25.6005 39.1874 25.5331 39.1875H12.4687C12.4012 39.1873 12.3349 39.2045 12.2761 39.2375C12.2172 39.2706 12.168 39.3183 12.1331 39.376C12.0982 39.4337 12.0788 39.4995 12.0769 39.5669C12.0749 39.6343 12.0905 39.7011 12.122 39.7607C12.7905 41.0033 13.7828 42.0419 14.9937 42.7662C16.2046 43.4905 17.5889 43.8737 18.9999 43.875Z" fill="#17476D"/>
</svg>
