<svg width="120" height="120" viewBox="0 0 120 120" fill="none" xmlns="http://www.w3.org/2000/svg">
<path fill-rule="evenodd" clip-rule="evenodd" d="M60.0004 120C70.8395 120.001 81.4765 117.066 90.7812 111.506C100.086 105.946 107.711 97.9698 112.846 88.4241C117.98 78.8784 120.434 68.12 119.944 57.2919C119.455 46.4638 116.042 35.9704 110.067 26.9267L62.367 79.9267C60.139 82.4028 57.0648 83.9552 53.7495 84.2785C50.4343 84.6017 47.1181 83.6724 44.4537 81.6733L22.667 65.3333C21.2525 64.2725 20.3174 62.6931 20.0674 60.9428C19.8173 59.1925 20.2728 57.4145 21.3337 56C22.3946 54.5855 23.9739 53.6504 25.7242 53.4003C27.4746 53.1503 29.2525 53.6058 30.667 54.6667L52.4537 71.0067L101.427 16.6C94.3324 9.8274 85.6856 4.89734 76.2437 2.24148C66.8019 -0.414376 56.8529 -0.71504 47.2679 1.36582C37.6829 3.44667 28.7542 7.84559 21.2635 14.1774C13.7728 20.5092 7.94864 28.5809 4.30088 37.6856C0.653115 46.7903 -0.706976 56.6505 0.33969 66.4027C1.38636 76.155 4.80786 85.502 10.3046 93.6253C15.8014 101.749 23.2058 108.4 31.8695 112.998C40.5332 117.597 50.1921 120.001 60.0004 120Z" fill="#17476D"/>
</svg>
