<svg width="22" height="22" viewBox="0 0 22 22" fill="none" xmlns="http://www.w3.org/2000/svg">
<path d="M3.11011 9.93618C3.11011 6.57089 3.11011 4.8878 4.15602 3.84278C5.20103 2.79687 6.88412 2.79688 10.2494 2.79688H12.0342C15.3995 2.79688 17.0826 2.79687 18.1276 3.84278C19.1735 4.8878 19.1735 6.57089 19.1735 9.93618V11.721C19.1735 15.0863 19.1735 16.7694 18.1276 17.8144C17.0826 18.8603 15.3995 18.8603 12.0342 18.8603H10.2494C6.88412 18.8603 5.20103 18.8603 4.15602 17.8144C3.11011 16.7694 3.11011 15.0863 3.11011 11.721V9.93618Z" stroke="#60B8D6" stroke-width="2"/>
<path d="M15.1577 8.15136C15.897 8.15136 16.4963 7.55204 16.4963 6.81274C16.4963 6.07344 15.897 5.47412 15.1577 5.47412C14.4184 5.47412 13.8191 6.07344 13.8191 6.81274C13.8191 7.55204 14.4184 8.15136 15.1577 8.15136Z" fill="#60B8D6"/>
<path d="M11.1418 13.5058C12.6204 13.5058 13.8191 12.3072 13.8191 10.8286C13.8191 9.35001 12.6204 8.15137 11.1418 8.15137C9.66324 8.15137 8.4646 9.35001 8.4646 10.8286C8.4646 12.3072 9.66324 13.5058 11.1418 13.5058Z" stroke="#60B8D6" stroke-width="2"/>
</svg>
