<svg width="22" height="21" viewBox="0 0 22 21" fill="none" xmlns="http://www.w3.org/2000/svg">
<path d="M14.8683 5.16492C14.2757 4.48839 13.9491 3.61958 13.9494 2.72021H11.2706V13.47C11.2499 14.0517 11.0043 14.6027 10.5855 15.007C10.1667 15.4112 9.60737 15.6372 9.02528 15.6373C7.79426 15.6373 6.7713 14.6316 6.7713 13.3833C6.7713 11.8922 8.21038 10.7739 9.6928 11.2333V8.49387C6.70195 8.09509 4.08386 10.4184 4.08386 13.3833C4.08386 16.2701 6.47655 18.3247 9.01661 18.3247C11.7387 18.3247 13.9494 16.1141 13.9494 13.3833V7.93038C15.0356 8.71047 16.3398 9.12901 17.6771 9.12672V6.44795C17.6771 6.44795 16.0473 6.52597 14.8683 5.16492Z" fill="#60B8D6"/>
</svg>
