<svg width="23" height="23" viewBox="0 0 23 23" fill="none" xmlns="http://www.w3.org/2000/svg">
<path d="M9.70028 14.1175L14.3319 11.4402L9.70028 8.76301V14.1175ZM20.0166 7.1299C20.1326 7.54933 20.2129 8.11155 20.2664 8.82548C20.3289 9.53941 20.3557 10.1552 20.3557 10.6906L20.4092 11.4402C20.4092 13.3946 20.2664 14.8314 20.0166 15.7506C19.7935 16.5538 19.2759 17.0714 18.4727 17.2945C18.0533 17.4105 17.2858 17.4908 16.1078 17.5444C14.9477 17.6068 13.8857 17.6336 12.904 17.6336L11.4851 17.6871C7.74589 17.6871 5.4167 17.5444 4.49751 17.2945C3.69434 17.0714 3.17674 16.5538 2.95364 15.7506C2.83762 15.3312 2.75731 14.7689 2.70376 14.055C2.64129 13.3411 2.61452 12.7253 2.61452 12.1899L2.56097 11.4402C2.56097 9.48587 2.70376 8.04908 2.95364 7.1299C3.17674 6.32672 3.69434 5.80912 4.49751 5.58602C4.91694 5.47001 5.68442 5.38969 6.8624 5.33615C8.02254 5.27368 9.08451 5.2469 10.0662 5.2469L11.4851 5.19336C15.2243 5.19336 17.5535 5.33615 18.4727 5.58602C19.2759 5.80912 19.7935 6.32672 20.0166 7.1299Z" fill="#60B8D6"/>
</svg>
